<svg width="42" height="42" viewBox="0 0 42 42" fill="none" xmlns="http://www.w3.org/2000/svg">
<g clip-path="url(#clip0_66_3525)">
<rect x="42" y="42" width="42" height="42" rx="21" transform="rotate(180 42 42)" fill="#1C1C1C"/>
<g style="mix-blend-mode:plus-lighter" filter="url(#filter0_f_66_3525)">
<path d="M2.39844 35.9026C2.39844 26.1019 0.866015 36.8885 12.3984 36.8885C23.9309 36.8885 48.3984 11.0879 48.3984 20.8885C48.3984 30.6892 43.9309 46.3887 32.3984 46.3887C20.866 46.3887 2.39844 45.7033 2.39844 35.9026Z" fill="#738CD3"/>
</g>
<g style="mix-blend-mode:plus-lighter" filter="url(#filter1_f_66_3525)">
<path d="M40.168 4.65306C40.168 14.4537 41.7004 3.66712 30.168 3.66712C18.6355 3.66712 -5.83203 29.4678 -5.83203 19.6671C-5.83203 9.86643 -1.36446 -5.83301 10.168 -5.83301C21.7004 -5.83301 40.168 -5.14763 40.168 4.65306Z" fill="#D480DC"/>
</g>
</g>
<defs>
<filter id="filter0_f_66_3525" x="-4.07804" y="12.2569" width="58.8865" height="40.5418" filterUnits="userSpaceOnUse" color-interpolation-filters="sRGB">
<feFlood flood-opacity="0" result="BackgroundImageFix"/>
<feBlend mode="normal" in="SourceGraphic" in2="BackgroundImageFix" result="shape"/>
<feGaussianBlur stdDeviation="3.20504" result="effect1_foregroundBlur_66_3525"/>
</filter>
<filter id="filter1_f_66_3525" x="-12.2421" y="-12.2431" width="58.8865" height="40.5418" filterUnits="userSpaceOnUse" color-interpolation-filters="sRGB">
<feFlood flood-opacity="0" result="BackgroundImageFix"/>
<feBlend mode="normal" in="SourceGraphic" in2="BackgroundImageFix" result="shape"/>
<feGaussianBlur stdDeviation="3.20504" result="effect1_foregroundBlur_66_3525"/>
</filter>
<clipPath id="clip0_66_3525">
<rect x="42" y="42" width="42" height="42" rx="21" transform="rotate(180 42 42)" fill="white"/>
</clipPath>
</defs>
</svg>
